<?xml version="1.0" encoding="UTF-8"?>
<svg id="Layer_2" data-name="Layer 2" xmlns="http://www.w3.org/2000/svg" viewBox="0 0 1799.89 391.01">
  <defs>
    <style>
      .cls-1 {
        fill: #db2430;
      }

      .cls-1, .cls-2, .cls-3, .cls-4, .cls-5, .cls-6 {
        stroke-width: 0px;
      }

      .cls-2 {
        fill: #db222e;
      }

      .cls-3 {
        fill: #db232e;
      }

      .cls-4 {
        fill: #da222e;
      }

      .cls-5 {
        fill: #da212d;
      }

      .cls-6 {
        fill: #db232f;
      }
    </style>
  </defs>
  <g id="Layer_1-2" data-name="Layer 1">
    <g>
      <path class="cls-4" d="M0,1.83c38.15,0,75-1.32,111.73.34,42.78,1.93,70.14,29.1,71.77,79.19,2.37,72.57,1.07,145.42-2.66,217.96-2.35,45.8-36.73,74.71-83.26,79.26-16.52,1.61-32.89,4.59-49.37,6.71-15.78,2.03-31.59,3.76-48.22,5.72V1.83ZM60.7,324.02c7.53-.77,13.41-1.39,19.29-1.96,35.13-3.45,41.2-9.92,41.32-45.68.18-56.79.06-113.59.05-170.38,0-47.85-3.93-51.66-51.64-49.93-2.83.1-5.63.83-9.02,1.35v266.6Z"/>
      <path class="cls-1" d="M623.95,335.27c-17.36,1.17-37.39,2.53-61.1,4.13-.93-18.1-2.13-34.82-2.55-51.56-.43-17.16.24-34.34-.18-51.5-.62-26.03-10.66-36.02-36.79-37.3-5.9-.29-11.82-.04-19.92-.04v142.74c-21.95,1.59-41.77,3.03-62.63,4.54V0c44.52,1.95,88.95,1.53,132.73,6.67,28.38,3.33,45.24,27.39,47.19,56.91,1.13,17.09,1.47,34.44-.13,51.46-2.14,22.78-13.31,40.98-36,52.7,30.58,15.29,36.84,40.78,36.68,70.39-.17,31.73,1.66,63.47,2.68,97.14ZM503.96,50.74v96.97c18.99-.46,40.81,4.88,50.28-14.73,10.95-22.66,11.61-49.22-.62-71.55-10.44-19.06-31.96-7.99-49.66-10.7Z"/>
      <path class="cls-2" d="M271.36,293.47c-2.66,16.91-5.99,32.97-7.46,49.19-1.11,12.21-4.49,19.94-18.46,20.33-13.48.38-26.92,2.07-42.48,3.37,20.44-122.13,40.63-242.78,61.01-364.57,27.83,0,54.56-.41,81.24.45,3.84.12,10.11,5.86,10.82,9.8,19.48,107.4,38.41,214.89,57.31,322.39.69,3.95.09,8.13.09,13.68-19.41,1.47-38.2,2.89-59.93,4.54-3.81-20.22-7.75-41.15-12.06-64.04-22.84,1.58-45.23,3.14-70.09,4.86ZM278.96,240.67c18.07-1.12,35.33-2.19,54.68-3.38-8.77-54.62-17.1-106.42-25.42-158.22-1.35.14-2.71.27-4.06.41-8.29,53-16.57,105.99-25.21,161.19Z"/>
      <path class="cls-4" d="M1684.56,232.04c-15.41,45.95-30.81,91.9-46.7,139.27-18.62-2.01-37.18-4.02-58.17-6.29,14.86-41.97,25.75-83.14,43.77-120.95,21.83-45.81,21.53-88.02.37-133.57-15.74-33.89-25.82-70.38-39.01-107.36h64.14c13.75,41.37,27.87,83.85,43.5,130.89,15.83-46.42,30.29-88.82,44.9-131.66h57.39c-11.83,34.96-23.18,68.76-34.7,102.49-8.91,26.1-24.93,52.07-25.13,78.19-.2,26.12,15.49,52.32,23.92,78.57,13.46,41.88,26.68,83.84,41.05,129.06-21.42-2.49-40.08-3.72-58.25-7.41-4.77-.97-9.81-8.99-11.61-14.73-14.19-45.35-27.63-90.92-41.3-136.43-1.39-.03-2.78-.06-4.16-.08Z"/>
      <path class="cls-4" d="M724.03,133.09c21.9-39.82,44.1-79.49,65.48-119.59,4.89-9.18,10.63-12.51,20.85-11.93,14.81.84,29.71.22,47.4.22-2.86,5.81-4.74,10.24-7.12,14.39-21.81,37.92-43.21,76.09-65.87,113.51-6.95,11.47-7.27,20.52-1.65,32.55,23.18,49.64,45.31,99.77,67.78,149.74,2.34,5.2,4.43,10.52,8.23,19.59-20.92,0-39.11.82-57.13-.59-4.42-.35-9.83-7.3-12.11-12.39-17.25-38.64-33.84-77.58-51.44-118.3-32.18,41.39-9.63,87.63-19.54,131.29-17.82,1.1-37.11,2.3-57.96,3.59V2.78h59.45v129.96c1.21.12,2.42.23,3.64.35Z"/>
      <path class="cls-3" d="M1102.96,1.78c20.39,111.28,40.62,221.73,61.23,334.21-21.71-.98-41.79-1.88-62.9-2.83-3.49-20.16-6.86-39.61-10.5-60.61h-71.61c-3.26,18.7-6.63,38.09-10.13,58.21h-56.36c2.91-18.84,5.16-36.51,8.41-54.01,16.35-88.16,32.82-176.31,49.92-264.33.81-4.17,7.87-10.01,12.2-10.17,26.08-.95,52.22-.47,79.74-.47ZM1081.97,221.86c-8.84-51.96-17.51-102.9-26.17-153.83-.64-.04-1.28-.08-1.92-.13-8.74,50.95-17.47,101.89-26.4,153.96h54.49Z"/>
      <path class="cls-6" d="M1557.89,3.04v49.58h-99.88v95.38c21.65,0,43.51.47,65.33-.19,11.88-.36,15.81,4.24,15.05,15.65-.78,11.69-.17,23.46-.17,35.69h-80.33v99.76c33.09,2.75,66.04,5.48,99.94,8.29v55.29c-27.49-2.37-54.46-4.7-81.43-7-27.1-2.32-54.21-4.62-82.32-7.01V3.04h163.82Z"/>
      <path class="cls-5" d="M1249.98,339.11c-6.79,0-12,.28-17.17-.05-14.12-.92-28.23-2.1-42.93-3.22V1.96c36.88,0,73.16-1.84,109.17.5,37.98,2.47,61.69,23.29,66.76,61.85,3.86,29.42,2.92,60.39-1.71,89.76-5.96,37.8-31.32,55.85-70.16,56.96-14.12.4-28.25.06-43.95.06v128.02ZM1250.54,161.44c10.17,0,18.43.43,26.63-.08,20.55-1.29,28.49-9.17,29.76-29.83.62-10.01.13-20.09.14-30.14,0-48.29-4.3-52.38-53.05-50.25-.97.04-1.89,1.07-3.47,2.03v108.28Z"/>
    </g>
  </g>
</svg>