<?xml version="1.0" encoding="UTF-8"?>
<svg id="Layer_2" data-name="Layer 2" xmlns="http://www.w3.org/2000/svg" viewBox="0 0 1876 472.58">
  <defs>
    <style>
      .cls-1 {
        fill: #fefdfd;
      }

      .cls-1, .cls-2, .cls-3, .cls-4, .cls-5, .cls-6, .cls-7, .cls-8, .cls-9, .cls-10 {
        stroke-width: 0px;
      }

      .cls-2 {
        fill: #db2430;
      }

      .cls-3 {
        fill: #fefcfc;
      }

      .cls-4 {
        fill: #db222e;
      }

      .cls-5 {
        fill: #fdfafa;
      }

      .cls-6 {
        fill: #db232e;
      }

      .cls-7 {
        fill: #da222e;
      }

      .cls-8 {
        fill: #da212d;
      }

      .cls-9 {
        fill: #fdf9fa;
      }

      .cls-10 {
        fill: #db232f;
      }
    </style>
  </defs>
  <g id="Layer_1-2" data-name="Layer 1">
    <g>
      <path class="cls-1" d="M0,472.58C0,315.05,0,157.53,0,0c625.33,0,1250.67,0,1876,0,0,157.53,0,315.05,0,472.58-625.33,0-1250.67,0-1876,0ZM40.08,39.12v389.18c16.63-1.96,32.44-3.69,48.22-5.72,16.47-2.12,32.85-5.09,49.37-6.71,46.53-4.55,80.91-33.46,83.26-79.26,3.73-72.53,5.02-145.39,2.66-217.96-1.63-50.09-29-77.26-71.77-79.19-36.72-1.66-73.58-.34-111.73-.34ZM664.03,372.57c-1.02-33.68-2.85-65.42-2.68-97.14.16-29.61-6.1-55.1-36.68-70.39,22.69-11.72,33.86-29.93,36-52.7,1.6-17.02,1.26-34.37.13-51.46-1.95-29.52-18.82-53.58-47.19-56.91-43.77-5.14-88.21-4.72-132.73-6.67v346.28c20.86-1.51,40.67-2.95,62.63-4.54v-142.74c8.1,0,14.02-.25,19.92.04,26.13,1.28,36.17,11.27,36.79,37.3.41,17.16-.26,34.34.18,51.5.42,16.74,1.62,33.46,2.55,51.56,23.71-1.6,43.73-2.96,61.1-4.13ZM311.44,330.77c24.85-1.72,47.25-3.27,70.09-4.86,4.31,22.89,8.25,43.82,12.06,64.04,21.73-1.65,40.52-3.07,59.93-4.54,0-5.54.61-9.72-.09-13.68-18.89-107.5-37.82-215-57.31-322.39-.71-3.94-6.99-9.68-10.82-9.8-26.68-.86-53.41-.45-81.24-.45-20.38,121.78-40.58,242.44-61.01,364.57,15.56-1.29,29-2.99,42.48-3.37,13.96-.39,17.35-8.12,18.46-20.33,1.47-16.22,4.81-32.28,7.46-49.19ZM1724.64,269.33c1.39.03,2.78.06,4.16.08,13.67,45.51,27.11,91.09,41.3,136.43,1.8,5.75,6.84,13.76,11.61,14.73,18.16,3.69,36.83,4.92,58.25,7.41-14.37-45.22-27.59-87.18-41.05-129.06-8.44-26.25-24.12-52.45-23.92-78.57.2-26.12,16.22-52.1,25.13-78.19,11.52-33.74,22.88-67.53,34.7-102.49h-57.39c-14.61,42.83-29.07,85.24-44.9,131.66-15.63-47.04-29.75-89.52-43.5-130.89h-64.14c13.19,36.98,23.27,73.47,39.01,107.36,21.16,45.55,21.46,87.76-.37,133.57-18.02,37.81-28.91,78.99-43.77,120.95,20.99,2.27,39.55,4.28,58.17,6.29,15.88-47.37,31.29-93.32,46.7-139.27ZM764.11,170.38c-1.21-.12-2.42-.23-3.64-.35V40.07h-59.45v332.39c20.85-1.29,40.14-2.49,57.96-3.59,9.9-43.66-12.64-89.89,19.54-131.29,17.6,40.72,34.18,79.66,51.44,118.3,2.28,5.1,7.69,12.05,12.11,12.39,18.02,1.41,36.22.59,57.13.59-3.8-9.07-5.89-14.39-8.23-19.59-22.48-49.97-44.6-100.1-67.78-149.74-5.62-12.03-5.29-21.08,1.65-32.55,22.66-37.42,44.06-75.59,65.87-113.51,2.38-4.15,4.27-8.58,7.12-14.39-17.7,0-32.59.63-47.4-.22-10.22-.58-15.96,2.75-20.85,11.93-21.38,40.1-43.58,79.77-65.48,119.59ZM1143.04,39.08c-27.52,0-53.66-.48-79.74.47-4.33.16-11.39,6-12.2,10.17-17.1,88.02-33.57,176.17-49.92,264.33-3.25,17.5-5.5,35.17-8.41,54.01h56.36c3.5-20.12,6.88-39.51,10.13-58.21h71.61c3.64,20.99,7.01,40.45,10.5,60.61,21.11.95,41.2,1.85,62.9,2.83-20.61-112.48-40.84-222.93-61.23-334.21ZM1597.97,40.33h-163.82v345.44c28.11,2.39,55.22,4.69,82.32,7.01,26.97,2.31,53.94,4.64,81.43,7v-55.29c-33.9-2.81-66.85-5.55-99.94-8.29v-99.76h80.33c0-12.22-.61-24,.17-35.69.76-11.4-3.17-16.01-15.05-15.65-21.83.66-43.69.19-65.33.19v-95.38h99.88v-49.58ZM1290.06,376.41v-128.02c15.69,0,29.83.34,43.95-.06,38.84-1.11,64.2-19.16,70.16-56.96,4.63-29.37,5.58-60.34,1.71-89.76-5.07-38.56-28.78-59.38-66.76-61.85-36-2.34-72.28-.5-109.17-.5v333.88c14.7,1.12,28.8,2.3,42.93,3.22,5.17.34,10.39.05,17.17.05Z"/>
      <path class="cls-7" d="M40.08,39.12c38.15,0,75-1.32,111.73.34,42.78,1.93,70.14,29.1,71.77,79.19,2.37,72.57,1.07,145.42-2.66,217.96-2.35,45.8-36.73,74.71-83.26,79.26-16.52,1.61-32.89,4.59-49.37,6.71-15.78,2.03-31.59,3.76-48.22,5.72V39.12ZM100.78,361.31c7.53-.77,13.41-1.39,19.29-1.96,35.13-3.45,41.2-9.92,41.32-45.68.18-56.79.06-113.59.05-170.38,0-47.85-3.93-51.66-51.64-49.93-2.83.1-5.63.83-9.02,1.35v266.6Z"/>
      <path class="cls-2" d="M664.03,372.57c-17.36,1.17-37.39,2.53-61.1,4.13-.93-18.1-2.13-34.82-2.55-51.56-.43-17.16.24-34.34-.18-51.5-.62-26.03-10.66-36.02-36.79-37.3-5.9-.29-11.82-.04-19.92-.04v142.74c-21.95,1.59-41.77,3.03-62.63,4.54V37.29c44.52,1.95,88.95,1.53,132.73,6.67,28.38,3.33,45.24,27.39,47.19,56.91,1.13,17.09,1.47,34.44-.13,51.46-2.14,22.78-13.31,40.98-36,52.7,30.58,15.29,36.84,40.78,36.68,70.39-.17,31.73,1.66,63.47,2.68,97.14ZM544.04,88.04v96.97c18.99-.46,40.81,4.88,50.28-14.73,10.95-22.66,11.61-49.22-.62-71.55-10.44-19.06-31.96-7.99-49.66-10.7Z"/>
      <path class="cls-4" d="M311.44,330.77c-2.66,16.91-5.99,32.97-7.46,49.19-1.11,12.21-4.49,19.94-18.46,20.33-13.48.38-26.92,2.07-42.48,3.37,20.44-122.13,40.63-242.78,61.01-364.57,27.83,0,54.56-.41,81.24.45,3.84.12,10.11,5.86,10.82,9.8,19.48,107.4,38.41,214.89,57.31,322.39.69,3.95.09,8.13.09,13.68-19.41,1.47-38.2,2.89-59.93,4.54-3.81-20.22-7.75-41.15-12.06-64.04-22.84,1.58-45.23,3.14-70.09,4.86ZM319.04,277.97c18.07-1.12,35.33-2.19,54.68-3.38-8.77-54.62-17.1-106.42-25.42-158.22-1.35.14-2.71.27-4.06.41-8.29,53-16.57,105.99-25.21,161.19Z"/>
      <path class="cls-7" d="M1724.64,269.33c-15.41,45.95-30.81,91.9-46.7,139.27-18.62-2.01-37.18-4.02-58.17-6.29,14.86-41.97,25.75-83.14,43.77-120.95,21.83-45.81,21.53-88.02.37-133.57-15.74-33.89-25.82-70.38-39.01-107.36h64.14c13.75,41.37,27.87,83.85,43.5,130.89,15.83-46.42,30.29-88.82,44.9-131.66h57.39c-11.83,34.96-23.18,68.76-34.7,102.49-8.91,26.1-24.93,52.07-25.13,78.19-.2,26.12,15.49,52.32,23.92,78.57,13.46,41.88,26.68,83.84,41.05,129.06-21.42-2.49-40.08-3.72-58.25-7.41-4.77-.97-9.81-8.99-11.61-14.73-14.19-45.35-27.63-90.92-41.3-136.43-1.39-.03-2.78-.06-4.16-.08Z"/>
      <path class="cls-7" d="M764.11,170.38c21.9-39.82,44.1-79.49,65.48-119.59,4.89-9.18,10.63-12.51,20.85-11.93,14.81.84,29.71.22,47.4.22-2.86,5.81-4.74,10.24-7.12,14.39-21.81,37.92-43.21,76.09-65.87,113.51-6.95,11.47-7.27,20.52-1.65,32.55,23.18,49.64,45.31,99.77,67.78,149.74,2.34,5.2,4.43,10.52,8.23,19.59-20.92,0-39.11.82-57.13-.59-4.42-.35-9.83-7.3-12.11-12.39-17.25-38.64-33.84-77.58-51.44-118.3-32.18,41.39-9.63,87.63-19.54,131.29-17.82,1.1-37.11,2.3-57.96,3.59V40.07h59.45v129.96c1.21.12,2.42.23,3.64.35Z"/>
      <path class="cls-6" d="M1143.04,39.08c20.39,111.28,40.62,221.73,61.23,334.21-21.71-.98-41.79-1.88-62.9-2.83-3.49-20.16-6.86-39.61-10.5-60.61h-71.61c-3.26,18.7-6.63,38.09-10.13,58.21h-56.36c2.91-18.84,5.16-36.51,8.41-54.01,16.35-88.16,32.82-176.31,49.92-264.33.81-4.17,7.87-10.01,12.2-10.17,26.08-.95,52.22-.47,79.74-.47ZM1122.05,259.15c-8.84-51.96-17.51-102.9-26.17-153.83-.64-.04-1.28-.08-1.92-.13-8.74,50.95-17.47,101.89-26.4,153.96h54.49Z"/>
      <path class="cls-10" d="M1597.97,40.33v49.58h-99.88v95.38c21.65,0,43.51.47,65.33-.19,11.88-.36,15.81,4.24,15.05,15.65-.78,11.69-.17,23.46-.17,35.69h-80.33v99.76c33.09,2.75,66.04,5.48,99.94,8.29v55.29c-27.49-2.37-54.46-4.7-81.43-7-27.1-2.32-54.21-4.62-82.32-7.01V40.33h163.82Z"/>
      <path class="cls-8" d="M1290.06,376.41c-6.79,0-12,.28-17.17-.05-14.12-.92-28.23-2.1-42.93-3.22V39.25c36.88,0,73.16-1.84,109.17.5,37.98,2.47,61.69,23.29,66.76,61.85,3.86,29.42,2.92,60.39-1.71,89.76-5.96,37.8-31.32,55.85-70.16,56.96-14.12.4-28.25.06-43.95.06v128.02ZM1290.62,198.74c10.17,0,18.43.43,26.63-.08,20.55-1.29,28.49-9.17,29.76-29.83.62-10.01.13-20.09.14-30.14,0-48.29-4.3-52.38-53.05-50.25-.97.04-1.89,1.07-3.47,2.03v108.28Z"/>
      <path class="cls-3" d="M100.78,361.31V94.72c3.39-.53,6.19-1.25,9.02-1.35,47.71-1.73,51.64,2.07,51.64,49.93,0,56.79.12,113.59-.05,170.38-.11,35.75-6.18,42.23-41.32,45.68-5.89.58-11.77,1.2-19.29,1.96Z"/>
      <path class="cls-1" d="M544.04,88.04c17.69,2.71,39.22-8.36,49.66,10.7,12.23,22.33,11.57,48.89.62,71.55-9.48,19.61-31.3,14.27-50.28,14.73v-96.97Z"/>
      <path class="cls-9" d="M319.04,277.97c8.63-55.2,16.92-108.2,25.21-161.19,1.35-.14,2.71-.27,4.06-.41,8.32,51.8,16.64,103.6,25.42,158.22-19.35,1.2-36.61,2.27-54.68,3.38Z"/>
      <path class="cls-5" d="M1122.05,259.15h-54.49c8.93-52.06,17.66-103.01,26.4-153.96.64.04,1.28.08,1.92.13,8.67,50.94,17.33,101.87,26.17,153.83Z"/>
      <path class="cls-3" d="M1290.62,198.74v-108.28c1.59-.96,2.51-1.98,3.47-2.03,48.75-2.14,53.05,1.95,53.05,50.25,0,10.05.48,20.13-.14,30.14-1.27,20.67-9.21,28.55-29.76,29.83-8.2.51-16.46.08-26.63.08Z"/>
    </g>
  </g>
</svg>