<?xml version="1.0" encoding="UTF-8"?>
<svg id="Layer_2" data-name="Layer 2" xmlns="http://www.w3.org/2000/svg" viewBox="0 0 456 96">
  <defs>
    <style>
      .cls-1 {
        fill: #db2430;
      }

      .cls-1, .cls-2, .cls-3, .cls-4, .cls-5, .cls-6 {
        stroke-width: 0px;
      }

      .cls-2 {
        fill: #db222e;
      }

      .cls-3 {
        fill: #db232e;
      }

      .cls-4 {
        fill: #da222e;
      }

      .cls-5 {
        fill: #da212d;
      }

      .cls-6 {
        fill: #db232f;
      }
    </style>
  </defs>
  <g id="Layer_1-2" data-name="Layer 1">
    <g>
      <path class="cls-4" d="M0,.45c9.66,0,19-.32,28.31.08,10.84.47,17.77,7.14,18.18,19.44.6,17.82.27,35.7-.67,53.51-.6,11.25-9.3,18.34-21.09,19.46-4.18.4-8.33,1.13-12.51,1.65-4,.5-8,.92-12.22,1.4V.45ZM15.38,79.55c1.91-.19,3.4-.34,4.89-.48,8.9-.85,10.44-2.44,10.47-11.21.04-13.94.02-27.89.01-41.83,0-11.75-1-12.68-13.08-12.26-.72.03-1.43.2-2.28.33v65.45Z"/>
      <path class="cls-1" d="M158.08,82.32c-4.4.29-9.47.62-15.48,1.01-.24-4.44-.54-8.55-.65-12.66-.11-4.21.06-8.43-.04-12.64-.16-6.39-2.7-8.84-9.32-9.16-1.49-.07-3-.01-5.05-.01v35.05c-5.56.39-10.58.74-15.87,1.11V0c11.28.48,22.54.38,33.63,1.64,7.19.82,11.46,6.72,11.96,13.97.29,4.2.37,8.46-.03,12.63-.54,5.59-3.37,10.06-9.12,12.94,7.75,3.75,9.33,10.01,9.29,17.28-.04,7.79.42,15.58.68,23.85ZM127.68,12.46v23.81c4.81-.11,10.34,1.2,12.74-3.62,2.77-5.56,2.94-12.08-.16-17.57-2.65-4.68-8.1-1.96-12.58-2.63Z"/>
      <path class="cls-2" d="M68.75,72.05c-.67,4.15-1.52,8.09-1.89,12.08-.28,3-1.14,4.89-4.68,4.99-3.42.09-6.82.51-10.76.83,5.18-29.98,10.29-59.61,15.46-89.51,7.05,0,13.82-.1,20.58.11.97.03,2.56,1.44,2.74,2.41,4.94,26.37,9.73,52.76,14.52,79.15.18.97.02,2,.02,3.36-4.92.36-9.68.71-15.18,1.11-.96-4.96-1.96-10.1-3.05-15.72-5.79.39-11.46.77-17.76,1.19ZM70.67,59.09c4.58-.27,8.95-.54,13.85-.83-2.22-13.41-4.33-26.13-6.44-38.85-.34.03-.69.07-1.03.1-2.1,13.01-4.2,26.02-6.39,39.58Z"/>
      <path class="cls-4" d="M426.78,56.97c-3.9,11.28-7.81,22.56-11.83,34.19-4.72-.49-9.42-.99-14.74-1.54,3.76-10.3,6.52-20.41,11.09-29.7,5.53-11.25,5.45-21.61.09-32.79-3.99-8.32-6.54-17.28-9.88-26.36h16.25c3.48,10.16,7.06,20.59,11.02,32.14,4.01-11.4,7.67-21.81,11.37-32.32h14.54c-3,8.58-5.87,16.88-8.79,25.16-2.26,6.41-6.32,12.78-6.37,19.2-.05,6.41,3.92,12.84,6.06,19.29,3.41,10.28,6.76,20.58,10.4,31.69-5.43-.61-10.16-.91-14.76-1.82-1.21-.24-2.49-2.21-2.94-3.62-3.6-11.13-7-22.32-10.46-33.5-.35,0-.7-.01-1.06-.02Z"/>
      <path class="cls-4" d="M183.43,32.68c5.55-9.78,11.17-19.52,16.59-29.36,1.24-2.25,2.69-3.07,5.28-2.93,3.75.21,7.53.05,12.01.05-.72,1.43-1.2,2.51-1.8,3.53-5.52,9.31-10.95,18.68-16.69,27.87-1.76,2.82-1.84,5.04-.42,7.99,5.87,12.19,11.48,24.5,17.17,36.76.59,1.28,1.12,2.58,2.08,4.81-5.3,0-9.91.2-14.47-.14-1.12-.08-2.49-1.79-3.07-3.04-4.37-9.49-8.57-19.05-13.03-29.04-8.15,10.16-2.44,21.52-4.95,32.23-4.52.27-9.4.56-14.68.88V.68h15.06v31.91c.31.03.61.06.92.09Z"/>
      <path class="cls-3" d="M279.44.44c5.17,27.32,10.29,54.44,15.51,82.05-5.5-.24-10.59-.46-15.94-.69-.89-4.95-1.74-9.73-2.66-14.88h-18.14c-.82,4.59-1.68,9.35-2.57,14.29h-14.28c.74-4.62,1.31-8.96,2.13-13.26,4.14-21.65,8.32-43.29,12.65-64.9.21-1.02,1.99-2.46,3.09-2.5,6.61-.23,13.23-.12,20.2-.12ZM274.12,54.47c-2.24-12.76-4.44-25.26-6.63-37.77-.16-.01-.32-.02-.49-.03-2.21,12.51-4.43,25.02-6.69,37.8h13.81Z"/>
      <path class="cls-6" d="M394.69.75v12.17h-25.31v23.42c5.48,0,11.02.12,16.55-.05,3.01-.09,4.01,1.04,3.81,3.84-.2,2.87-.04,5.76-.04,8.76h-20.35v24.49c8.38.67,16.73,1.35,25.32,2.04v13.57c-6.97-.58-13.8-1.15-20.63-1.72-6.87-.57-13.73-1.13-20.86-1.72V.75h41.5Z"/>
      <path class="cls-5" d="M316.68,83.26c-1.72,0-3.04.07-4.35-.01-3.58-.23-7.15-.51-10.88-.79V.48c9.34,0,18.54-.45,27.66.12,9.62.61,15.63,5.72,16.91,15.19.98,7.22.74,14.83-.43,22.04-1.51,9.28-7.93,13.71-17.78,13.98-3.58.1-7.16.02-11.13.02v31.43ZM316.82,39.64c2.58,0,4.67.11,6.75-.02,5.21-.32,7.22-2.25,7.54-7.32.16-2.46.03-4.93.03-7.4,0-11.86-1.09-12.86-13.44-12.34-.24.01-.48.26-.88.5v26.59Z"/>
    </g>
  </g>
</svg>